(  ___  )|     /|(  ____ (  __   
| (   ) |(    / )| (    /| (    )
| (___) |  (_) / | (__    | |   ) |
|  ___  |  ) _ (  |  __)   | |   | |
| (   ) | / ( )  | (      | |   ) |
| )   ( |( /    )| (____/| (__/  )
|/     ||/     |(_______/(______/ 
  _    _    _    _    _    _    _    _  
 /   /   /   /   /   /   /   /  
( p )( r )( e )( s )( e )( n )( t )( s )
 _/  _/  _/  _/  _/  _/  _/  _/
 
The.Rambler.2013.BDRiP.AC3-5.1.XviD-AXED

POSTER: 
[IMG]http://img855.imageshack.us/img855/6042/therambler.jpg[/IMG]

IMDB:  
http://www.imdb.com/title/tt2381355

PLOT INFO:
Dermot Mulroney is The Rambler.

Media Info:
General
Complete name                            : The.Rambler.2013.BDRiP.AC3-5.1.XviD-AXED.avi
Format                                   : AVI
Format/Info                              : Audio Video Interleave
File size                                : 1.37 GiB
Duration                                 : 1h 38mn
Overall bit rate                         : 1 987 Kbps

Video
ID                                       : 0
Format                                   : MPEG-4 Visual
Format profile                           : Advanced Simple@L5
Format settings, BVOP                    : 2
Format settings, QPel                    : No
Format settings, GMC                     : No warppoints
Format settings, Matrix                  : Default (H.263)
Muxing mode                              : Packed bitstream
Codec ID                                 : XVID
Codec ID/Hint                            : XviD
Duration                                 : 1h 38mn
Bit rate                                 : 1 531 Kbps
Width                                    : 720 pixels
Height                                   : 304 pixels
Display aspect ratio                     : 2.35:1
Frame rate                               : 23.976 fps
Color space                              : YUV
Chroma subsampling                       : 4:2:0
Bit depth                                : 8 bits
Scan type                                : Progressive
Compression mode                         : Lossy
Bits/(Pixel*Frame)                       : 0.292
Stream size                              : 1.06 GiB (77%)
Writing library                          : XviD 64

Audio
ID                                       : 1
Format                                   : AC-3
Format/Info                              : Audio Coding 3
Mode extension                           : CM (complete main)
Format settings, Endianness              : Big
Codec ID                                 : 2000
Duration                                 : 1h 38mn
Bit rate mode                            : Constant
Bit rate                                 : 448 Kbps
Channel(s)                               : 6 channels
Channel positions                        : Front: L C R, Side: L R, LFE
Sampling rate                            : 48.0 KHz
Bit depth                                : 16 bits
Compression mode                         : Lossy
Stream size                              : 316 MiB (23%)
Alignment                                : Aligned on interleaves
Interleave, duration                     : 64 ms (1.53 video frames)
Interleave, preload duration             : 192 ms
Title                                    : rambler



SOURCE: 
Retail RA Blu-Ray DISC

NOTES: 
Not much to say, interesting looking new movie with Dermot Mulroney, enjoy.

AXED! We do this better.

SCREENS:
[IMG]http://imageshack.us/a/img801/6675/scrncp00002.png[/IMG]
[IMG]http://imageshack.us/a/img42/7477/scrncp00003.png[/IMG]
[IMG]http://imageshack.us/a/img600/4738/scrncp00005.png[/IMG]
[IMG]http://imageshack.us/a/img33/8084/scrncp00010b.png[/IMG]
[IMG]http://imageshack.us/a/img805/2838/scrncp00015o.png[/IMG]

